<svg id="svg" version="1.1" width="400" height="82.23972003499563" viewBox="0 0 400 82.23972003499563" xmlns="http://www.w3.org/2000/svg" xmlns:xlink="http://www.w3.org/1999/xlink" ><g id="svgg"><path id="path0" d="M31.500 0.268 C 29.741 0.634,28.293 1.126,27.167 1.741 C 26.938 1.866,26.492 2.107,26.176 2.276 C 24.291 3.287,21.688 5.839,20.542 7.801 C 19.966 8.787,19.723 9.279,19.169 10.583 C 18.906 11.202,18.642 12.075,18.137 14.000 C 17.861 15.054,17.533 16.292,17.410 16.750 C 17.287 17.208,17.030 18.181,16.839 18.911 C 16.503 20.200,15.058 25.569,14.596 27.250 C 14.470 27.708,14.253 28.496,14.115 29.000 C 13.976 29.504,13.519 31.229,13.098 32.833 C 12.678 34.438,12.262 35.975,12.174 36.250 C 12.086 36.525,11.829 37.462,11.602 38.333 C 11.374 39.204,10.956 40.779,10.672 41.833 C 10.107 43.928,9.260 47.103,8.916 48.417 C 8.796 48.875,8.461 50.112,8.171 51.167 C 7.882 52.221,7.543 53.496,7.418 54.000 C 7.292 54.504,6.993 55.629,6.752 56.500 C 6.263 58.268,5.760 60.122,5.396 61.500 C 5.263 62.004,5.052 62.792,4.927 63.250 C 4.802 63.708,4.471 64.946,4.192 66.000 C 3.626 68.139,3.402 68.976,3.166 69.833 C 3.077 70.154,2.514 72.254,1.915 74.500 C 0.634 79.303,0.378 80.242,0.161 80.928 C -0.201 82.080,-0.616 82.000,5.747 82.000 L 11.494 82.000 11.594 81.542 C 11.649 81.290,11.732 80.971,11.777 80.833 C 11.823 80.696,12.048 79.871,12.277 79.000 C 12.664 77.533,13.031 76.161,13.595 74.083 C 13.719 73.625,13.936 72.819,14.077 72.292 C 14.218 71.765,14.440 70.940,14.570 70.458 C 15.017 68.808,15.302 67.747,15.833 65.750 C 16.126 64.650,16.468 63.375,16.593 62.917 C 16.718 62.458,16.929 61.671,17.062 61.167 C 17.340 60.105,18.107 57.251,18.852 54.500 C 19.630 51.629,19.798 51.003,20.062 50.000 C 20.332 48.972,21.022 46.388,21.532 44.500 C 21.869 43.248,22.132 42.262,22.564 40.625 C 22.691 40.144,23.032 38.887,23.320 37.833 C 23.609 36.779,24.075 35.054,24.356 34.000 C 24.914 31.902,25.239 30.693,25.587 29.417 C 25.712 28.958,25.970 27.986,26.161 27.256 C 26.351 26.526,26.882 24.538,27.340 22.839 C 27.797 21.140,28.242 19.487,28.328 19.167 C 29.387 15.212,29.697 14.277,30.210 13.500 C 32.195 10.492,36.706 10.388,38.848 13.301 C 39.435 14.099,39.620 14.604,40.419 17.600 C 40.759 18.874,41.334 21.004,41.695 22.333 C 42.539 25.437,43.118 27.603,43.987 30.917 C 44.372 32.383,44.758 33.808,44.844 34.083 C 44.930 34.358,45.376 36.008,45.836 37.750 C 46.686 40.970,46.796 41.379,47.245 43.000 C 47.385 43.504,47.989 45.754,48.587 48.000 C 49.185 50.246,49.780 52.458,49.910 52.917 C 50.039 53.375,50.568 55.362,51.085 57.333 C 51.603 59.304,52.131 61.292,52.259 61.750 C 52.387 62.208,52.869 64.008,53.329 65.750 C 53.790 67.492,54.236 69.142,54.321 69.417 C 54.406 69.692,54.592 70.367,54.734 70.917 C 55.227 72.817,57.179 80.087,57.454 81.042 L 57.730 82.000 63.448 82.000 C 69.831 82.000,69.374 82.096,68.990 80.832 C 68.892 80.512,68.587 79.387,68.310 78.333 C 67.677 75.918,67.386 74.824,67.071 73.667 C 66.471 71.469,66.438 71.345,65.161 66.552 C 64.873 65.469,64.532 64.208,64.405 63.750 C 64.278 63.292,63.683 61.079,63.083 58.833 C 62.483 56.587,61.878 54.337,61.738 53.833 C 61.598 53.329,61.414 52.654,61.329 52.333 C 61.243 52.012,61.092 51.450,60.992 51.083 C 60.800 50.378,60.684 49.944,59.833 46.750 C 59.540 45.650,59.194 44.357,59.064 43.876 C 58.587 42.118,58.216 40.731,57.356 37.500 C 57.075 36.446,56.609 34.721,56.320 33.667 C 56.032 32.612,55.691 31.356,55.564 30.875 C 55.132 29.238,54.869 28.252,54.532 27.000 C 53.927 24.760,53.307 22.434,53.087 21.583 C 52.968 21.125,52.669 20.000,52.422 19.083 C 52.174 18.167,51.832 16.892,51.661 16.250 C 50.279 11.062,50.291 11.099,49.577 9.552 C 48.482 7.181,46.917 5.171,45.000 3.673 C 44.404 3.208,43.828 2.755,43.720 2.668 C 41.231 0.652,35.276 -0.517,31.500 0.268 M78.500 41.000 L 78.500 82.000 84.083 82.000 L 89.667 82.000 89.667 41.000 L 89.667 0.000 84.083 0.000 L 78.500 0.000 78.500 41.000 M98.833 8.333 L 98.833 16.667 104.417 16.667 L 110.000 16.667 110.000 8.333 L 110.000 0.000 104.417 0.000 L 98.833 0.000 98.833 8.333 M141.484 0.072 C 141.444 0.111,140.813 0.255,140.081 0.392 C 129.392 2.385,121.158 10.853,119.477 21.583 C 119.120 23.858,119.073 57.150,119.423 59.750 C 119.678 61.649,120.039 63.351,120.341 64.083 C 120.417 64.267,120.528 64.604,120.588 64.833 C 121.305 67.583,123.947 71.809,126.654 74.539 C 136.448 84.413,152.404 84.657,162.500 75.088 C 167.011 70.813,169.765 65.185,170.330 59.083 C 170.558 56.621,170.557 25.352,170.329 22.945 C 169.226 11.323,160.787 2.427,148.740 0.188 C 147.796 0.012,141.642 -0.086,141.484 0.072 M201.333 0.187 C 199.046 0.650,196.752 1.271,195.917 1.654 C 190.542 4.115,187.641 6.347,184.742 10.252 C 176.193 21.766,178.791 36.995,190.271 42.666 C 191.200 43.125,192.066 43.500,192.196 43.500 C 192.327 43.500,192.505 43.563,192.592 43.640 C 192.759 43.788,193.935 44.104,196.417 44.665 C 197.242 44.852,198.217 45.078,198.583 45.167 C 198.950 45.256,199.925 45.481,200.750 45.667 C 201.575 45.853,202.550 46.078,202.917 46.167 C 203.283 46.256,204.258 46.481,205.083 46.667 C 205.908 46.853,206.883 47.078,207.250 47.167 C 207.915 47.328,209.874 47.778,212.083 48.277 C 216.278 49.225,218.096 50.707,219.515 54.333 C 220.739 57.462,218.766 63.387,215.362 66.801 C 206.760 75.432,190.836 69.096,190.833 57.042 L 190.833 56.333 185.225 56.333 L 179.616 56.333 179.723 58.042 C 180.872 76.456,200.733 87.702,217.078 79.195 C 235.019 69.857,235.645 44.425,218.083 38.368 C 216.709 37.895,215.726 37.640,212.417 36.899 C 211.775 36.755,210.350 36.424,209.250 36.163 C 208.150 35.902,206.688 35.568,206.000 35.420 C 205.313 35.272,204.525 35.087,204.250 35.009 C 203.975 34.931,203.000 34.705,202.083 34.506 C 197.452 33.503,196.181 33.157,195.167 32.621 C 188.453 29.079,189.938 18.029,197.775 13.217 C 206.918 7.604,218.793 13.632,219.757 24.375 L 219.872 25.667 225.450 25.667 L 231.027 25.667 230.915 23.958 C 230.257 13.896,224.631 6.132,214.750 1.653 C 213.857 1.248,211.872 0.721,209.196 0.180 C 208.138 -0.034,202.401 -0.029,201.333 0.187 M148.000 11.434 C 153.266 12.644,157.488 16.724,158.857 21.925 L 159.250 23.417 159.250 41.000 L 159.250 58.583 158.876 59.917 C 158.078 62.767,157.174 64.426,155.379 66.339 C 146.926 75.343,131.920 70.359,130.506 58.078 C 130.290 56.201,130.300 25.638,130.517 23.750 C 131.479 15.387,139.775 9.543,148.000 11.434 M98.944 25.444 C 98.883 25.506,98.833 38.256,98.833 53.778 L 98.833 82.000 104.417 82.000 L 110.000 82.000 110.000 53.667 L 110.000 25.333 104.528 25.333 C 101.518 25.333,99.006 25.383,98.944 25.444 " stroke="none" fill="#44bcb4" fill-rule="evenodd"></path><path id="path1" d="M254.167 2.917 L 254.167 5.833 259.417 5.833 L 264.667 5.833 264.667 24.167 L 264.667 42.500 267.583 42.500 L 270.500 42.500 270.500 24.167 L 270.500 5.833 275.667 5.833 L 280.833 5.833 280.833 2.917 L 280.833 0.000 267.500 0.000 L 254.167 0.000 254.167 2.917 M286.333 21.250 L 286.333 42.500 289.240 42.500 L 292.148 42.500 292.199 32.542 L 292.250 22.583 292.698 21.643 C 294.630 17.586,300.114 17.075,302.608 20.720 C 303.579 22.139,303.561 21.932,303.625 32.625 L 303.684 42.500 306.600 42.500 L 309.516 42.500 309.456 31.958 C 309.397 21.680,309.386 21.393,309.039 20.457 C 308.065 17.834,306.851 16.166,304.612 14.379 C 301.818 12.149,296.299 11.732,292.852 13.491 L 292.167 13.840 292.167 6.920 L 292.167 0.000 289.250 0.000 L 286.333 0.000 286.333 21.250 M315.000 2.917 L 315.000 5.833 317.917 5.833 L 320.833 5.833 320.833 2.917 L 320.833 0.000 317.917 0.000 L 315.000 0.000 315.000 2.917 M315.000 27.417 L 315.000 42.500 317.917 42.500 L 320.833 42.500 320.833 27.417 L 320.833 12.333 317.917 12.333 L 315.000 12.333 315.000 27.417 M326.333 27.417 L 326.333 42.500 329.244 42.500 L 332.154 42.500 332.202 32.458 L 332.250 22.417 332.657 21.583 C 334.824 17.153,340.680 17.125,343.034 21.534 L 343.417 22.250 343.463 32.375 L 343.510 42.500 346.514 42.500 L 349.518 42.500 349.458 32.125 C 349.399 22.052,349.387 21.719,349.041 20.687 C 347.116 14.950,342.108 11.726,336.267 12.464 C 334.834 12.645,334.227 12.818,332.891 13.427 C 332.172 13.756,332.167 13.753,332.167 13.000 L 332.167 12.333 329.250 12.333 L 326.333 12.333 326.333 27.417 M363.127 12.494 C 358.985 13.251,355.793 16.024,354.197 20.250 C 353.388 22.393,353.451 32.554,354.288 34.833 C 356.723 41.464,363.789 44.237,370.679 41.266 C 371.415 40.949,370.369 44.144,369.253 45.624 C 366.789 48.889,362.568 49.896,358.917 48.091 L 357.750 47.514 355.708 49.546 C 353.305 51.938,353.389 51.661,354.792 52.566 C 363.369 58.097,374.655 53.317,376.591 43.333 C 376.792 42.297,376.833 39.540,376.833 27.208 L 376.833 12.333 373.917 12.333 L 371.000 12.333 371.000 13.000 C 371.000 13.736,370.888 13.790,370.145 13.405 C 368.505 12.557,365.158 12.123,363.127 12.494 M389.250 12.602 C 379.872 13.939,377.950 27.648,386.917 29.242 C 387.283 29.307,388.521 29.582,389.667 29.852 C 390.813 30.123,392.125 30.430,392.583 30.534 C 394.759 31.032,395.530 32.648,394.529 34.610 C 392.373 38.836,386.175 37.488,386.168 32.792 L 386.167 32.167 383.583 32.167 L 381.000 32.167 381.000 32.990 C 381.000 35.018,381.969 37.505,383.376 39.083 C 384.098 39.893,385.942 41.333,386.257 41.333 C 386.317 41.333,386.603 41.441,386.891 41.572 C 391.244 43.551,396.773 41.494,399.022 37.059 L 399.750 35.623 399.750 33.020 C 399.750 29.453,398.799 27.704,396.145 26.391 C 395.003 25.826,394.608 25.719,388.750 24.388 C 386.357 23.844,385.557 22.441,386.482 20.406 C 388.398 16.188,394.395 17.132,394.937 21.738 L 395.046 22.667 397.440 22.667 L 399.833 22.667 399.833 21.206 C 399.833 16.128,394.564 11.844,389.250 12.602 M366.678 18.428 C 368.443 18.937,369.898 20.263,370.615 22.013 C 370.882 22.665,370.917 23.299,370.917 27.500 L 370.917 32.250 370.444 33.213 C 368.016 38.157,361.273 37.632,359.746 32.379 C 359.364 31.063,359.452 23.109,359.861 22.033 C 360.929 19.224,363.933 17.636,366.678 18.428 M130.413 41.250 C 130.413 50.050,130.434 53.626,130.458 49.196 C 130.483 44.766,130.483 37.566,130.458 33.196 C 130.434 28.826,130.413 32.450,130.413 41.250 " stroke="none" fill="#7c848c" fill-rule="evenodd"></path></g></svg>