<svg width="400" height="75" xmlns="http://www.w3.org/2000/svg" xmlns:svg="http://www.w3.org/2000/svg" preserveAspectRatio="xMidYMid meet">
 <metadata>Created by potrace 1.15, written by Peter Selinger 2001-2017</metadata>
 <g>
  <title>Layer 1</title>
  <g stroke="null" id="svg_16">
   <path stroke="null" fill="#22b8b4" id="svg_2" d="m94.78541,3.46327c-2.52728,0.21976 -4.18161,0.65929 -6.19611,1.64212c-1.55666,0.76307 -3.04006,1.81915 -4.27318,3.05227c-2.05723,2.05723 -3.50401,4.60282 -4.19992,7.3865c-0.47005,1.8802 -0.43953,0.98893 -0.43953,13.55209c0,11.85502 -0.00611,11.50706 0.28081,12.92332c1.10492,5.47578 5.13392,10.04808 10.46929,11.89165c3.66883,1.26364 7.75887,1.17208 11.33003,-0.25029c5.45746,-2.17322 9.285,-7.13621 10.01145,-12.99657c0.11599,-0.94621 0.11599,-22.22053 0,-23.1057c-0.32354,-2.41739 -1.03777,-4.47463 -2.25258,-6.47082c-1.14766,-1.88631 -3.16826,-3.93133 -5.04846,-5.12171c-1.96566,-1.24533 -4.27928,-2.08165 -6.5868,-2.38688c-0.71423,-0.09157 -2.57001,-0.16482 -3.095,-0.11599l-0.00002,0zm1.81915,6.92255c2.23426,0.23808 4.029,1.0866 5.59786,2.65547c1.36132,1.35521 2.12438,2.75925 2.54559,4.66997l0.14041,0.64098l0,10.77452l0,10.77452l-0.1343,0.61656c-0.42732,1.91682 -1.19649,3.34529 -2.52117,4.66387c-1.0805,1.0866 -2.19764,1.77643 -3.65662,2.25868c-2.09386,0.69592 -4.4319,0.58603 -6.46471,-0.29302c-2.72262,-1.18428 -4.64556,-3.53452 -5.34148,-6.51354c-0.1282,-0.54331 -0.1282,-0.62877 -0.14651,-11.26288c-0.01832,-10.40824 -0.01832,-10.73178 0.09767,-11.4155c0.74476,-4.35254 4.48073,-7.533 8.94926,-7.61847c0.20145,-0.00611 0.62266,0.01832 0.934,0.04884z"/>
   <path stroke="null" fill="#22b8b4" id="svg_3" d="m132.34667,3.4877c-4.99962,0.42121 -9.46815,3.07058 -12.20298,7.23388c-1.30637,1.99008 -2.13048,4.22435 -2.47234,6.68448c-0.1282,0.89737 -0.10988,3.10722 0.03053,3.93743c0.5311,3.19878 2.25258,5.92751 4.9691,7.89317c0.70202,0.50668 2.25868,1.28195 3.12552,1.55666c0.38458,0.12209 3.54673,0.87294 7.02022,1.66654c3.99848,0.90958 6.48303,1.50782 6.77604,1.62381c0.97672,0.38458 1.97787,1.23922 2.50897,2.12438c0.5372,0.90958 0.76917,1.89241 0.70813,3.00954c-0.14651,2.71042 -1.4773,5.18275 -3.67493,6.83708c-0.61656,0.46394 -1.88631,1.11713 -2.61884,1.35521c-1.03167,0.32965 -1.62991,0.41511 -2.84471,0.42121c-0.94621,0 -1.23312,-0.02442 -1.77032,-0.14041c-2.69211,-0.57382 -4.87753,-2.1549 -6.22053,-4.49294c-0.68981,-1.2087 -1.16597,-2.88745 -1.16597,-4.13278l0,-0.29302l-3.4918,0l-3.48569,0l0.03663,0.77527c0.19534,3.98626 1.82526,7.67341 4.64556,10.48761c2.48455,2.48455 5.62839,4.04121 9.23617,4.59061c0.83632,0.12209 3.32698,0.14651 4.1694,0.03053c2.686,-0.36016 4.90805,-1.19038 7.1118,-2.65547c2.51507,-1.67265 4.62724,-4.23656 5.79321,-7.02022c1.17817,-2.8142 1.54445,-5.93361 1.00725,-8.61961c-0.60435,-3.02175 -2.50287,-5.80542 -5.15224,-7.55742c-0.71423,-0.47615 -1.97177,-1.0866 -2.77757,-1.35521c-0.35407,-0.11599 -3.51011,-0.86685 -7.02022,-1.67265c-3.51011,-0.79969 -6.56849,-1.53224 -6.80657,-1.6177c-1.60549,-0.61045 -2.8264,-2.07555 -3.18047,-3.82145c-0.1282,-0.64708 -0.08546,-1.82526 0.09767,-2.69211c0.55552,-2.64937 2.23426,-4.90195 4.62114,-6.20221c1.51392,-0.82411 3.44296,-1.22701 5.12171,-1.06219c2.32583,0.22587 4.24877,1.15376 5.86036,2.8264c1.49561,1.55055 2.36246,3.52232 2.50287,5.65281l0.04274,0.62266l3.47959,0l3.47959,0l-0.04274,-0.8119c-0.38458,-7.76497 -6.23884,-14.07708 -13.98551,-15.09043c-0.89737,-0.11599 -2.59443,-0.16482 -3.43076,-0.09157l0,0l-0.00001,0.00001z"/>
   <path stroke="null" fill="#22b8b4" id="svg_4" d="m23.10589,3.57926c-1.53224,0.20755 -3.12552,0.81801 -4.41358,1.69095c-1.72758,1.17208 -3.20489,3.05837 -3.9008,4.9813c-0.11599,0.32354 -11.71462,43.12248 -12.03206,44.40444l-0.04274,0.17092l3.60779,0l3.60168,0l0.06715,-0.26249c0.04274,-0.14041 2.60054,-9.60855 5.68333,-21.04236c4.4319,-16.41512 5.65891,-20.88364 5.83594,-21.24381c0.28691,-0.59214 0.90958,-1.22701 1.4895,-1.50782c1.01946,-0.50057 2.06944,-0.50057 3.10111,0c0.54331,0.26249 1.20259,0.91568 1.46509,1.45899c0.14651,0.29912 1.65433,5.78711 5.86647,21.3781c3.11943,11.53758 5.68333,21.03015 5.70774,21.0973c0.03663,0.12209 0.09157,0.12209 3.6383,0.12209c3.40634,0 3.60168,-0.00611 3.57116,-0.10988c-0.01832,-0.05494 -2.71042,-10.02976 -5.98856,-22.16559c-3.27814,-12.12973 -6.0435,-22.26937 -6.14117,-22.52576c-1.752,-4.42579 -6.35483,-7.09348 -11.11638,-6.4464l0.00001,0.00001z"/>
   <path stroke="null" id="svg_5" d="m277.5554,3.60979c-2.4235,0.64098 -3.87638,3.10722 -3.26593,5.53071c0.04884,0.19534 0.21976,0.62266 0.37848,0.9401c0.23808,0.48836 0.36627,0.6654 0.8058,1.09881c0.60435,0.59824 1.00725,0.84853 1.75811,1.11713c0.51278,0.18313 0.57993,0.19534 1.45288,0.19534c0.84243,-0.00611 0.95231,-0.01832 1.40404,-0.17092c1.46509,-0.51278 2.5578,-1.66654 2.96681,-3.12552c0.18924,-0.68981 0.19534,-1.70316 0,-2.37467c-0.22587,-0.8058 -0.57382,-1.39794 -1.16597,-1.99008c-0.58603,-0.59214 -1.09271,-0.90958 -1.80084,-1.14155c-0.6776,-0.21976 -1.85578,-0.2564 -2.53338,-0.07936l0,0.00001z"/>
   <path stroke="null" fill="#22b8b4" id="svg_6" d="m52.54198,29.37095l0,25.45594l3.66272,0l3.66272,0l0,-25.45594l0,-25.45594l-3.66272,0l-3.66272,0l0,25.45594z"/>
   <path stroke="null" fill="#22b8b4" id="svg_7" d="m66.03302,9.1344l0,5.21938l3.66272,0l3.66272,0l0,-5.21938l0,-5.21938l-3.66272,0l-3.66272,0l0,5.21938z"/>
   <path stroke="null" id="svg_8" d="m195.38826,7.27251l0,3.3575l6.53186,0l6.53186,0l0,22.09844l0,22.09844l3.87638,0l3.87638,0l0,-22.09844l0,-22.09844l6.50134,0l6.50134,0l0,-3.3575l0,-3.3575l-16.90958,0l-16.90958,0l0,3.3575z"/>
   <path stroke="null" id="svg_9" d="m235.37301,29.37095l0,25.45594l3.81534,0l3.81534,0l0,-10.46319c0,-6.50134 0.02442,-10.7562 0.06104,-11.24456c0.26249,-3.30867 1.02556,-5.96414 2.24647,-7.80161c1.16597,-1.76421 3.2171,-2.89966 5.83594,-3.2354c3.88859,-0.50668 6.69669,0.33575 8.3327,2.50287c0.85464,1.12324 1.41625,2.79588 1.59328,4.75544c0.03663,0.42732 0.06104,5.22549 0.06104,13.07593l0,12.41053l3.79092,0l3.78482,0l-0.02442,-13.38726c-0.02442,-13.61923 -0.02442,-13.64976 -0.2564,-15.20031c-0.31744,-2.14269 -0.99504,-4.03511 -1.96566,-5.50629c-0.56772,-0.85464 -1.77643,-2.05723 -2.66769,-2.64937c-2.43571,-1.6177 -5.75658,-2.41739 -9.52919,-2.30751c-1.82526,0.05494 -3.10722,0.2686 -4.60893,0.76917c-2.10606,0.70202 -3.63221,1.6177 -5.01183,2.99123c-0.55552,0.55552 -1.53224,1.75811 -1.62381,2.00229c-0.01832,0.04274 -0.1282,0.07936 -0.24419,0.07936l-0.21976,0l0.03663,-0.32354c0.04884,-0.38458 0.19534,-1.96566 0.29302,-3.095c0.04274,-0.5311 0.07936,-3.2171 0.09767,-7.55742l0.03053,-6.7272l-3.82145,0l-3.82145,0l0,25.45594l0,0l0.00002,-0.00002z"/>
   <path stroke="null" id="svg_10" d="m170.9701,29.38926c0,9.78559 0.01832,18.08166 0.04274,18.43572l0.03663,0.65319l1.4895,0l1.48341,0l0,-18.37467l0,-18.37467l-0.15262,0c-0.08546,0 -0.15262,-0.03053 -0.15262,-0.06104c0,-0.03663 -0.50057,-0.06104 -1.37353,-0.06104l-1.37353,0l0,17.78253l0.00001,-0.00002z"/>
   <path stroke="null" id="svg_11" d="m306.1857,15.78224c-1.77643,0.20755 -3.41855,0.64708 -5.01793,1.34911c-1.91682,0.83632 -3.66883,2.30142 -4.77375,3.98016c-0.21976,0.33575 -0.2747,0.38458 -0.44564,0.38458c-0.1343,0 -0.20145,-0.03053 -0.22587,-0.10988c-0.01221,-0.05494 -0.2564,-1.2087 -0.5372,-2.56391l-0.50668,-2.45403l-3.00344,0l-3.00954,0l0,19.2293l0,19.2293l3.78482,0l3.78482,0l0,-9.99924c0,-5.79321 0.03053,-10.45708 0.06104,-11.09195c0.15871,-2.85692 0.59824,-4.9813 1.42846,-6.87371c1.25754,-2.85082 3.29035,-4.2976 6.73331,-4.79206c1.02556,-0.14651 2.94239,-0.14651 3.83366,0c3.095,0.50668 4.99962,2.29531 5.74437,5.39031c0.37237,1.53835 0.35407,0.75697 0.37237,14.6509l0.02442,12.71576l3.75429,0l3.75429,0l-0.02442,-13.63144c-0.01832,-14.67532 -0.00611,-13.93667 -0.32354,-15.67036c-0.5311,-2.88745 -1.70927,-5.18275 -3.42465,-6.68448c-1.86799,-1.63602 -4.11446,-2.56391 -7.22168,-2.99123c-0.97063,-0.1343 -3.82755,-0.17092 -4.76155,-0.06715l0,0.00001z"/>
   <path stroke="null" id="svg_12" d="m341.83622,15.75782c-2.686,0.28081 -5.03625,1.16597 -6.97139,2.63105c-0.68981,0.52499 -1.78864,1.60549 -2.38688,2.34414c-1.60549,1.99008 -2.78978,4.47463 -3.51622,7.3865c-1.22091,4.89584 -1.09881,11.6963 0.29912,16.31134c1.3369,4.41358 3.92522,7.7955 7.30714,9.52919c2.09997,1.0744 4.25486,1.55055 7.03853,1.55055c3.70546,0 6.61121,-0.91568 8.94316,-2.82029c0.64098,-0.52499 1.64823,-1.59939 2.16711,-2.30142c0.52499,-0.72644 0.69592,-0.8119 0.64098,-0.34186c-0.07936,0.6776 -0.15262,2.50897 -0.18924,4.50515c-0.01832,1.17208 -0.06104,2.4235 -0.09157,2.77757c-0.22587,2.35635 -1.05609,4.31591 -2.44792,5.7749c-1.69706,1.77032 -3.7665,2.60664 -6.80046,2.74704c-0.9401,0.04274 -3.2293,-0.05494 -4.60282,-0.19534c-3.59558,-0.36627 -6.74552,-1.17208 -9.48645,-2.4174c-0.43342,-0.19534 -0.79359,-0.35407 -0.8058,-0.35407c-0.01221,0 -0.02442,1.50782 -0.02442,3.34529l0,3.34529l0.84243,0.31133c3.25372,1.20259 6.67227,1.80084 11.38497,1.98398c5.21328,0.20145 9.27279,-0.50668 12.3739,-2.16101c3.66883,-1.95345 5.97024,-5.29874 6.80046,-9.87715c0.39069,-2.1549 0.36016,-0.50057 0.38458,-23.00192l0.01832,-20.46242l-3.095,0.01221l-3.10111,0.01832l-0.42121,2.51507l-0.42121,2.52117l-0.15871,0c-0.12209,0 -0.21976,-0.08546 -0.44564,-0.38458c-0.73255,-0.98893 -1.72148,-1.97177 -2.76536,-2.74704c-1.68486,-1.25143 -3.82145,-2.08776 -6.26937,-2.46013c-0.73865,-0.10988 -3.41244,-0.16482 -4.19992,-0.08546l0,-0.00001zm5.24991,6.38535c2.77757,0.34186 4.88974,1.53834 6.19611,3.50401c1.09271,1.63602 1.72758,3.79703 2.04502,6.92865c0.10988,1.04998 0.14651,5.20717 0.06715,6.40976c-0.38458,5.60397 -2.16711,8.58298 -5.87257,9.8161c-1.25754,0.42121 -2.44792,0.59214 -4.12667,0.59214c-1.89241,0 -3.31477,-0.33575 -4.56619,-1.0866c-2.25868,-1.34911 -3.70546,-3.74208 -4.41969,-7.30714c-0.57993,-2.89356 -0.61656,-6.97749 -0.09767,-10.01145c0.62266,-3.61389 2.11217,-6.31209 4.24266,-7.69172c1.75811,-1.14155 3.78482,-1.49561 6.53186,-1.15376l-0.00001,0z"/>
   <path stroke="null" id="svg_13" d="m381.33261,15.75782c-3.36971,0.2747 -6.19001,1.12934 -8.30218,2.50897c-2.82029,1.84357 -4.14499,4.32812 -4.15108,7.7894c0,3.02785 0.83022,5.05456 2.88745,7.01412c1.65433,1.58108 4.23045,2.97902 8.7295,4.73102c4.75544,1.85578 6.93476,3.04006 8.03358,4.35864c0.28691,0.34186 0.68981,1.14155 0.78748,1.55666c0.25029,1.0805 0.06715,2.28921 -0.48836,3.2171c-0.28691,0.48226 -0.97672,1.16597 -1.51392,1.49561c-1.33079,0.82411 -3.03395,1.16597 -5.79931,1.17208c-2.04502,0.00611 -3.51011,-0.15871 -5.40252,-0.60435c-2.07555,-0.48836 -5.372,-1.62381 -6.75773,-2.32583c-0.15871,-0.07936 -0.31744,-0.14651 -0.35407,-0.14651c-0.04274,0 -0.06104,1.0805 -0.06104,3.32698l0,3.32698l0.35407,0.17092c0.56162,0.28691 1.81915,0.77527 2.57612,1.01335c1.8741,0.57993 3.71767,0.89737 6.22663,1.0805c1.25143,0.08546 4.63945,0.08546 5.67723,0c2.96681,-0.2564 5.15834,-0.79969 7.17894,-1.78253c2.20373,-1.0683 3.9008,-2.69821 4.82259,-4.60893c0.8058,-1.68486 1.17817,-3.8947 1.01335,-6.01297c-0.18924,-2.4235 -0.88515,-4.04121 -2.41739,-5.65281c-1.14155,-1.20259 -2.28921,-1.97787 -4.67608,-3.16826c-1.36132,-0.6776 -2.08165,-0.98893 -4.27318,-1.86799c-3.71767,-1.48341 -5.90919,-2.49066 -7.02022,-3.2232c-1.44678,-0.95842 -2.13659,-2.06334 -2.13659,-3.44906c0,-1.55666 0.84243,-2.70432 2.47234,-3.3575c1.22091,-0.48836 2.63105,-0.6654 4.85311,-0.62266c1.6116,0.03053 2.4235,0.12209 3.75429,0.409c1.37963,0.30523 3.94354,1.14155 5.67112,1.85578c0.37237,0.15262 0.6776,0.2686 0.6776,0.26249c0.14651,-0.2564 2.47234,-5.76269 2.45403,-5.81152c-0.01832,-0.03663 -0.46394,-0.24419 -0.99504,-0.45174c-2.70432,-1.0805 -5.59176,-1.81915 -8.3266,-2.11827c-1.03167,-0.10988 -4.49905,-0.16482 -5.49408,-0.08546l0.00001,0z"/>
   <path stroke="null" id="svg_14" d="m274.8694,35.59759l0,19.2293l3.78482,0l3.78482,0l0,-19.2293l0,-19.2293l-3.78482,0l-3.78482,0l0,19.2293z"/>
   <path stroke="null" fill="#22b8b4" id="svg_15" d="m66.03302,37.15424l0,17.67265l3.66272,0l3.66272,0l0,-17.67265l0,-17.67265l-3.66272,0l-3.66272,0l0,17.67265z"/>
  </g>
 </g>
</svg>
